<svg width="24" height="24" viewBox="0 0 24 24" fill="none" xmlns="http://www.w3.org/2000/svg">
<path d="M13.0572 7.43121C14.0335 6.4549 15.6164 6.4549 16.5927 7.43121C17.569 8.40752 17.569 9.99043 16.5927 10.9667C15.6164 11.943 14.0335 11.943 13.0572 10.9667C12.0809 9.99043 12.0809 8.40752 13.0572 7.43121ZM15.532 8.49187C15.1415 8.10134 14.5084 8.10134 14.1178 8.49187C13.7273 8.88239 13.7273 9.51556 14.1178 9.90608C14.5084 10.2966 15.1415 10.2966 15.532 9.90608C15.9226 9.51556 15.9226 8.88239 15.532 8.49187Z" fill="white"/>
<path d="M21.5086 4.32265C21.2398 3.45785 20.5625 2.78081 19.6976 2.51238L19.0355 2.30692C16.642 1.56409 14.034 2.20851 12.2618 3.98062L11.266 4.9765C9.89619 3.94786 7.94313 4.0567 6.69682 5.30302L5.45429 6.54555C5.16139 6.83844 5.16139 7.31331 5.45429 7.60621L7.04526 9.19718L6.86545 9.37699C6.18203 10.0604 6.18203 11.1684 6.86545 11.8519L7.3608 12.3472L5.96524 13.1432C5.76209 13.259 5.62462 13.463 5.59349 13.6948C5.56235 13.9266 5.64112 14.1596 5.80648 14.325L9.69559 18.2141C9.86083 18.3793 10.0937 18.4581 10.3253 18.4271C10.557 18.3962 10.7609 18.259 10.877 18.0562L11.6749 16.6613L12.1721 17.1584C12.8555 17.8419 13.9635 17.8419 14.6469 17.1584L14.8237 16.9816L16.4133 18.5712C16.7062 18.8641 17.1811 18.8641 17.474 18.5712L18.7165 17.3287C19.9623 16.0829 20.0716 14.1308 19.0442 12.7612L20.0421 11.7632C21.8149 9.99043 22.4591 7.38111 21.715 4.98696L21.5086 4.32265ZM19.253 3.94498C19.6461 4.06699 19.954 4.37473 20.0762 4.76783L20.2826 5.43213C20.8613 7.29426 20.3603 9.32372 18.9815 10.7026L13.5863 16.0978C13.4886 16.1954 13.3303 16.1954 13.2327 16.0978L7.92611 10.7912C7.82848 10.6936 7.82848 10.5353 7.92611 10.4377L13.3225 5.04128C14.7008 3.66297 16.7293 3.16176 18.5909 3.73951L19.253 3.94498ZM17.9641 13.8413C18.4166 14.607 18.3139 15.61 17.6558 16.2681L16.9436 16.9803L15.8844 15.921L17.9641 13.8413ZM7.75748 6.36368C8.41599 5.70516 9.42002 5.60275 10.186 6.05644L8.10592 8.13652L7.04528 7.07588L7.75748 6.36368ZM10.5756 15.562L10.0623 16.4594L7.56206 13.9592L8.46044 13.4469L10.5756 15.562Z" fill="white"/>
<path d="M6.6899 18.3948C6.98279 18.1019 6.98279 17.627 6.6899 17.3341C6.397 17.0412 5.92213 17.0412 5.62924 17.3341L3.15436 19.809C2.86147 20.1019 2.86147 20.5768 3.15436 20.8697C3.44726 21.1626 3.92213 21.1626 4.21502 20.8697L6.6899 18.3948Z" fill="white"/>
<path d="M4.74529 15.3895C5.03818 15.6824 5.03818 16.1573 4.74529 16.4501L3.68463 17.5108C3.39173 17.8037 2.91686 17.8037 2.62397 17.5108C2.33107 17.2179 2.33107 16.743 2.62397 16.4501L3.68463 15.3895C3.97752 15.0966 4.45239 15.0966 4.74529 15.3895Z" fill="white"/>
<path d="M8.63238 20.3413C8.92528 20.0484 8.92528 19.5736 8.63239 19.2807C8.33951 18.9878 7.86463 18.9878 7.57173 19.2807L6.51313 20.3392C6.22023 20.6321 6.22023 21.107 6.51312 21.3999C6.80601 21.6928 7.28088 21.6928 7.57378 21.3999L8.63238 20.3413Z" fill="white"/>
</svg>
