<svg width="120" height="120" viewBox="0 0 120 120" fill="none" xmlns="http://www.w3.org/2000/svg">
<path opacity="0.3" fill-rule="evenodd" clip-rule="evenodd" d="M64.2732 1.82977C79.1733 -0.837429 97.1979 -2.11925 107.344 9.11382C117.364 20.207 110.508 37.2552 109.755 52.1846C109.067 65.8488 112.007 80.643 103.209 91.1208C93.8932 102.216 78.6859 107.827 64.2732 106.352C50.8785 104.982 42.3465 93.1458 32.5646 83.8932C22.3121 74.1954 6.61475 66.2916 7.00722 52.1846C7.39788 38.1424 23.7319 31.4686 34.2812 22.1925C43.7148 13.8974 51.9079 4.04324 64.2732 1.82977Z" fill="url(#paint0_linear_91577_107180)"/>
<path d="M43.2499 46.1562C43.2499 44.3441 44.7189 42.875 46.5311 42.875H71.8436C73.6558 42.875 75.1249 44.3441 75.1249 46.1562V62.0938C75.1249 63.9059 73.6558 65.375 71.8436 65.375H46.5311C44.7189 65.375 43.2499 63.9059 43.2499 62.0938V46.1562ZM48.8749 45.2188V47.0938C48.8749 47.8704 48.2453 48.5 47.4686 48.5H45.5936V51.3125H47.4686C49.7986 51.3125 51.6874 49.4237 51.6874 47.0938V45.2188H48.8749ZM59.1874 58.8125C61.5173 58.8125 63.4061 56.9237 63.4061 54.5938C63.4061 52.2638 61.5173 50.375 59.1874 50.375C56.8574 50.375 54.9686 52.2638 54.9686 54.5938C54.9686 56.9237 56.8574 58.8125 59.1874 58.8125ZM45.5936 59.75H47.4686C48.2453 59.75 48.8749 60.3796 48.8749 61.1562V63.0312H51.6874V61.1562C51.6874 58.8263 49.7986 56.9375 47.4686 56.9375H45.5936V59.75ZM69.4999 61.1562C69.4999 60.3796 70.1295 59.75 70.9061 59.75H72.7811V56.9375H70.9061C68.5762 56.9375 66.6874 58.8263 66.6874 61.1562V63.0312H69.4999V61.1562ZM69.4999 47.0938V45.2188H66.6874V47.0938C66.6874 49.4237 68.5762 51.3125 70.9061 51.3125H72.7811V48.5H70.9061C70.1295 48.5 69.4999 47.8704 69.4999 47.0938ZM47.7524 68.1875C48.725 69.8688 50.5428 71 52.6249 71H71.8436C76.7624 71 80.7499 67.0125 80.7499 62.0938V52.25C80.7499 50.168 79.6187 48.3501 77.9374 47.3775V62.0938C77.9374 65.4592 75.2091 68.1875 71.8436 68.1875H47.7524Z" fill="url(#paint1_linear_91577_107180)"/>
<defs>
<linearGradient id="paint0_linear_91577_107180" x1="7" y1="106.584" x2="112.173" y2="-0.558646" gradientUnits="userSpaceOnUse">
<stop stop-color="#C2CEE8"/>
<stop offset="1" stop-color="#F1F6FF" stop-opacity="0.6"/>
</linearGradient>
<linearGradient id="paint1_linear_91577_107180" x1="41.3063" y1="73.7344" x2="83.7867" y2="71.1991" gradientUnits="userSpaceOnUse">
<stop stop-color="#3D6CDC"/>
<stop offset="1" stop-color="#625ABA"/>
</linearGradient>
</defs>
</svg>
