<svg width="120" height="120" viewBox="0 0 120 120" fill="none" xmlns="http://www.w3.org/2000/svg">
<path opacity="0.3" fill-rule="evenodd" clip-rule="evenodd" d="M56.7359 0.182889C70.0713 -0.228026 84.4026 -0.719041 94.4151 8.09858C104.877 17.3118 109.153 31.8524 108.509 45.7777C107.893 59.1104 99.7086 69.9402 91.0874 80.1292C81.3303 91.6606 71.7764 105.566 56.7359 106.966C40.9038 108.439 24.4386 100.215 15.3358 87.1778C7.11878 75.4093 12.9004 60.0879 14.0131 45.7777C14.9847 33.2817 12.7395 19.4973 21.3094 10.3513C30.0421 1.03153 43.9702 0.57625 56.7359 0.182889Z" fill="url(#paint0_linear_91577_107188)"/>
<path d="M47.3436 41.4688C47.3436 40.4332 46.5042 39.5938 45.4686 39.5938C44.4331 39.5938 43.5936 40.4332 43.5936 41.4688V67.7188C43.5936 70.3076 45.6923 72.4062 48.2811 72.4062H74.5311C75.5667 72.4062 76.4061 71.5668 76.4061 70.5312C76.4061 69.4957 75.5667 68.6562 74.5311 68.6562H48.2811C47.7634 68.6562 47.3436 68.2365 47.3436 67.7188V41.4688ZM63.7499 46.625C63.7499 45.5895 64.5893 44.75 65.6249 44.75H74.0651C74.5625 44.75 75.0395 44.9476 75.3912 45.2994C75.7428 45.6512 75.9403 46.1282 75.9401 46.6256L75.9374 55.0631C75.937 56.0986 75.0973 56.9378 74.0618 56.9375C73.0262 56.9372 72.187 56.0974 72.1874 55.0619L72.1887 51.1504L63.6695 59.6696C62.9372 60.4018 61.75 60.4018 61.0178 59.6696L57.6561 56.3079L52.8882 61.0758C52.156 61.8081 50.9688 61.8081 50.2366 61.0758C49.5043 60.3436 49.5043 59.1564 50.2366 58.4242L56.3303 52.3304C57.0625 51.5982 58.2497 51.5982 58.982 52.3304L62.3436 55.6921L69.5357 48.5H65.6249C64.5893 48.5 63.7499 47.6605 63.7499 46.625Z" fill="url(#paint1_linear_91577_107188)"/>
<defs>
<linearGradient id="paint0_linear_91577_107188" x1="11" y1="107.136" x2="116.498" y2="8.47579" gradientUnits="userSpaceOnUse">
<stop stop-color="#C2CEE8"/>
<stop offset="1" stop-color="#F1F6FF" stop-opacity="0.6"/>
</linearGradient>
<linearGradient id="paint1_linear_91577_107188" x1="41.893" y1="75.5964" x2="79.1212" y2="73.93" gradientUnits="userSpaceOnUse">
<stop stop-color="#3D6CDC"/>
<stop offset="1" stop-color="#625ABA"/>
</linearGradient>
</defs>
</svg>
