<svg width="120" height="120" viewBox="0 0 120 120" fill="none" xmlns="http://www.w3.org/2000/svg">
<path opacity="0.3" fill-rule="evenodd" clip-rule="evenodd" d="M62.4135 0.158909C76.4031 1.3862 86.3046 12.5412 96.2643 22.4417C106.27 32.3876 117.474 42.2554 118.883 56.2926C120.408 71.4842 114.675 86.9625 103.819 97.6981C93.0146 108.382 77.6001 112.639 62.4135 112.135C47.7469 111.647 34.5273 104.909 23.6705 95.0355C12.1636 84.5712 1.32595 71.8428 1.0078 56.2926C0.685168 40.5228 10.4103 26.5735 22.0521 15.9312C33.1352 5.79967 47.4549 -1.15339 62.4135 0.158909Z" fill="url(#paint0_linear_91577_107171)"/>
<path d="M61.5158 55.9619L48.485 61.89C48.1798 62.0288 47.972 62.3201 47.94 62.6539L46.6113 76.5152C46.4712 77.794 47.9796 78.574 48.9422 77.7205L77.1746 52.6853C78.0416 51.9165 77.6588 50.4878 76.5235 50.2554L39.5559 42.6906C38.2956 42.4327 37.3793 43.8624 38.14 44.8998L46.2214 56.2397C46.4159 56.5128 46.7416 56.6611 47.0753 56.6288L61.3243 55.2473C61.5304 55.2273 61.7137 55.3782 61.7337 55.5843C61.7492 55.7438 61.6616 55.8955 61.5158 55.9619Z" fill="url(#paint1_linear_91577_107171)"/>
<defs>
<linearGradient id="paint0_linear_91577_107171" x1="1" y1="112.175" x2="111.371" y2="-7.17197" gradientUnits="userSpaceOnUse">
<stop stop-color="#C2CEE8"/>
<stop offset="1" stop-color="#F1F6FF" stop-opacity="0.6"/>
</linearGradient>
<linearGradient id="paint1_linear_91577_107171" x1="46.1016" y1="82.3214" x2="85.695" y2="69.7901" gradientUnits="userSpaceOnUse">
<stop stop-color="#3D6CDC"/>
<stop offset="1" stop-color="#625ABA"/>
</linearGradient>
</defs>
</svg>
