<svg width="41" height="41" viewBox="0 0 41 41" fill="none" xmlns="http://www.w3.org/2000/svg">
<path d="M36.5258 30.3131C36.682 30.3131 36.8187 30.3785 36.9359 30.5093C37.0531 30.6402 37.1182 30.7841 37.1312 30.9411C37.1312 31.072 37.0661 31.2486 36.9359 31.4711C36.8057 31.6935 36.6299 31.9552 36.4086 32.2561C36.1872 32.5571 35.9463 32.8515 35.6859 33.1394C35.4255 33.4272 35.1781 33.7085 34.9437 33.9833C34.7094 34.2581 34.501 34.4871 34.3187 34.6703C34.1364 34.8535 34.0127 34.9843 33.9476 35.0628C33.3096 35.6647 32.5674 36.247 31.7211 36.8096C30.8747 37.3723 29.9828 37.8826 29.0453 38.3405C28.1078 38.7985 27.1442 39.1518 26.1547 39.4004C25.1651 39.649 24.2341 39.7864 23.3617 39.8126C22.3721 39.8126 21.4346 39.6555 20.5492 39.3415C19.6638 39.0275 18.8435 38.5957 18.0883 38.0461C17.333 37.4966 16.656 36.8423 16.057 36.0834C15.458 35.3245 14.9502 34.5198 14.5336 33.6693C14.1169 32.8188 13.7914 31.9225 13.557 30.9804C13.3226 30.0383 13.2054 29.1093 13.2054 28.1933C13.2054 27.0811 13.3877 25.9886 13.7523 24.9156C14.1169 23.8427 14.5987 22.8351 15.1976 21.893C15.3539 22.9529 15.6599 23.9408 16.1156 24.8567C16.5713 25.7727 17.1377 26.6101 17.8148 27.369C18.4919 28.1279 19.2601 28.8018 20.1195 29.3906C20.9789 29.9794 21.8838 30.4832 22.8344 30.9019C23.7849 31.3206 24.7745 31.6281 25.8031 31.8243C26.8317 32.0206 27.8344 32.1318 28.8109 32.158C30.0479 32.158 31.2523 32.0337 32.4242 31.7851C33.5961 31.5365 34.7419 31.1308 35.8617 30.5682C35.9659 30.5159 36.0765 30.4635 36.1937 30.4112C36.3109 30.3589 36.4216 30.3261 36.5258 30.3131ZM10.7054 28.1933C10.7054 29.4102 10.8552 30.6075 11.1547 31.7851C11.4541 32.9627 11.8838 34.0945 12.4437 35.1806C13.0036 36.2666 13.6937 37.2545 14.514 38.1443C15.3344 39.034 16.2588 39.8191 17.2875 40.4995C15.6469 40.2771 14.0909 39.8649 12.6195 39.263C11.1482 38.6611 9.76794 37.8957 8.47888 36.9666C7.18982 36.0376 6.03748 34.9778 5.02185 33.787C4.00623 32.5963 3.12732 31.2944 2.38513 29.8813C1.64294 28.4681 1.08305 26.983 0.705444 25.4259C0.32784 23.8688 0.126017 22.2594 0.0999756 20.5976C0.0999756 19.6948 0.275757 18.8639 0.627319 18.105C0.978882 17.3461 1.44112 16.6591 2.01404 16.0442C2.58695 15.4292 3.25102 14.8993 4.00623 14.4544C4.76143 14.0095 5.51664 13.6366 6.27185 13.3356C7.09216 13.0347 7.9255 12.8188 8.77185 12.6879C9.61821 12.5571 10.4776 12.4851 11.35 12.472C12.1312 12.472 12.919 12.5309 13.7133 12.6487C14.5075 12.7664 15.2888 12.9562 16.057 13.2179C16.8252 13.4796 17.5544 13.8001 18.2445 14.1796C18.9346 14.559 19.5791 15.0236 20.1781 15.5731C19.7875 15.5731 19.4034 15.6124 19.0258 15.6909C18.6482 15.7694 18.2836 15.9002 17.932 16.0834V16.0442C17.2289 16.3582 16.5648 16.7704 15.9398 17.2807C15.3148 17.791 14.7289 18.3667 14.182 19.0079C13.6351 19.649 13.1534 20.3556 12.7367 21.1276C12.32 21.8996 11.9554 22.6781 11.6429 23.4632C11.3304 24.2483 11.1026 25.0465 10.9594 25.8577C10.8161 26.669 10.7315 27.4475 10.7054 28.1933ZM20.0219 0.499512C21.9099 0.499512 23.7588 0.71541 25.5687 1.14721C27.3786 1.579 29.0844 2.22015 30.6859 3.07066C32.2875 3.92117 33.7458 5.00066 35.0609 6.30913C36.376 7.6176 37.4763 9.12889 38.3617 10.843C38.9086 11.8898 39.3317 12.9758 39.6312 14.1011C39.9307 15.2264 40.087 16.3909 40.1 17.5947C40.1 18.5891 39.9698 19.5378 39.7094 20.4406C39.4489 21.3435 39.0713 22.1744 38.5765 22.9333C38.0817 23.6922 37.4698 24.366 36.7406 24.9549C36.0114 25.5437 35.2041 26.0409 34.3187 26.4465C33.7198 26.7082 33.1013 26.911 32.4633 27.055C31.8252 27.1989 31.1807 27.2709 30.5297 27.2709C30.0609 27.2709 29.5271 27.2578 28.9281 27.2316C28.3291 27.2054 27.7172 27.1335 27.0922 27.0157C26.4672 26.8979 25.8812 26.7409 25.3344 26.5447C24.7875 26.3484 24.3187 26.0736 23.9281 25.7203C23.7979 25.6156 23.6742 25.4782 23.557 25.3081C23.4398 25.138 23.3812 24.9549 23.3812 24.7586C23.3812 24.5885 23.4659 24.3922 23.6351 24.1698C23.8044 23.9473 23.9997 23.6726 24.2211 23.3454C24.4424 23.0183 24.6442 22.6323 24.8265 22.1874C25.0088 21.7426 25.1 21.2126 25.1 20.5976C25.1 19.42 24.8786 18.3274 24.4359 17.3199C23.9932 16.3124 23.4073 15.3965 22.6781 14.5721C21.9489 13.7478 21.1026 13.0347 20.139 12.4328C19.1755 11.8309 18.1794 11.3337 17.1508 10.9411C16.2133 10.6009 15.2627 10.3523 14.2992 10.1953C13.3357 10.0383 12.3526 9.95977 11.35 9.95977C9.63123 9.95977 7.93201 10.2084 6.25232 10.7056C4.57263 11.2028 3.04268 11.9814 1.66248 13.0412C2.45675 11.1047 3.46586 9.36441 4.68982 7.82041C5.91378 6.27642 7.30701 4.9614 8.86951 3.87537C10.432 2.78934 12.1573 1.95846 14.0453 1.38273C15.9333 0.807003 17.9255 0.512596 20.0219 0.499512Z" fill="white"/>
</svg>
