<svg width="24" height="24" viewBox="0 0 24 24" fill="none" xmlns="http://www.w3.org/2000/svg">
<path d="M24 12C24 13.1016 23.8594 14.1641 23.5781 15.1875C23.2969 16.2109 22.8906 17.1641 22.3594 18.0469C21.8281 18.9297 21.2031 19.7383 20.4844 20.4727C19.7656 21.207 18.957 21.8359 18.0586 22.3594C17.1602 22.8828 16.2031 23.2852 15.1875 23.5664C14.1719 23.8477 13.1094 23.9922 12 24C10.8984 24 9.83594 23.8594 8.8125 23.5781C7.78906 23.2969 6.83594 22.8906 5.95312 22.3594C5.07031 21.8281 4.26172 21.2031 3.52734 20.4844C2.79297 19.7656 2.16406 18.957 1.64062 18.0586C1.11719 17.1602 0.714844 16.2031 0.433594 15.1875C0.152344 14.1719 0.0078125 13.1094 0 12C0 10.8984 0.140625 9.83594 0.421875 8.8125C0.703125 7.78906 1.10938 6.83594 1.64062 5.95312C2.17188 5.07031 2.79688 4.26172 3.51562 3.52734C4.23438 2.79297 5.04297 2.16406 5.94141 1.64062C6.83984 1.11719 7.79688 0.714844 8.8125 0.433594C9.82812 0.152344 10.8906 0.0078125 12 0C13.1016 0 14.1641 0.140625 15.1875 0.421875C16.2109 0.703125 17.1641 1.10938 18.0469 1.64062C18.9297 2.17188 19.7383 2.79688 20.4727 3.51562C21.207 4.23438 21.8359 5.04297 22.3594 5.94141C22.8828 6.83984 23.2852 7.79688 23.5664 8.8125C23.8477 9.82812 23.9922 10.8906 24 12ZM22.5 12C22.5 11.0391 22.375 10.1133 22.125 9.22266C21.875 8.33203 21.5234 7.49609 21.0703 6.71484C20.6172 5.93359 20.0664 5.22266 19.418 4.58203C18.7695 3.94141 18.0625 3.39453 17.2969 2.94141C16.5312 2.48828 15.6953 2.13281 14.7891 1.875C13.8828 1.61719 12.9531 1.49219 12 1.5C11.0312 1.5 10.1016 1.625 9.21094 1.875C8.32031 2.125 7.48438 2.47656 6.70312 2.92969C5.92188 3.38281 5.21484 3.92969 4.58203 4.57031C3.94922 5.21094 3.40234 5.91797 2.94141 6.69141C2.48047 7.46484 2.125 8.30078 1.875 9.19922C1.625 10.0977 1.5 11.0312 1.5 12C1.5 12.9688 1.625 13.8984 1.875 14.7891C2.125 15.6797 2.47656 16.5156 2.92969 17.2969C3.38281 18.0781 3.92969 18.7852 4.57031 19.418C5.21094 20.0508 5.91797 20.5977 6.69141 21.0586C7.46484 21.5195 8.30078 21.875 9.19922 22.125C10.0977 22.375 11.0312 22.5 12 22.5C12.9688 22.5 13.8984 22.375 14.7891 22.125C15.6797 21.875 16.5156 21.5234 17.2969 21.0703C18.0781 20.6172 18.7852 20.0703 19.418 19.4297C20.0508 18.7891 20.5977 18.082 21.0586 17.3086C21.5195 16.5352 21.875 15.6992 22.125 14.8008C22.375 13.9023 22.5 12.9688 22.5 12ZM12.75 7.52344V11.4023C13.2188 11.5117 13.6758 11.6523 14.1211 11.8242C14.5664 11.9961 14.9922 12.2188 15.3984 12.4922C15.7891 12.7422 16.0703 13.043 16.2422 13.3945C16.4141 13.7461 16.5 14.1562 16.5 14.625C16.5 15.1797 16.3984 15.6562 16.1953 16.0547C15.9922 16.4531 15.7188 16.7891 15.375 17.0625C15.0312 17.3359 14.6328 17.543 14.1797 17.6836C13.7266 17.8242 13.25 17.918 12.75 17.9648V18.4102C12.75 18.543 12.7422 18.6719 12.7266 18.7969C12.7109 18.9219 12.6797 19.0391 12.6328 19.1484C12.5859 19.2578 12.5117 19.3438 12.4102 19.4062C12.3086 19.4688 12.1719 19.5 12 19.5C11.8281 19.5 11.6914 19.4688 11.5898 19.4062C11.4883 19.3438 11.4141 19.2578 11.3672 19.1484C11.3203 19.0391 11.2852 18.918 11.2617 18.7852C11.2383 18.6523 11.2305 18.5195 11.2383 18.3867V18.1758C11.2383 18.1055 11.2422 18.0391 11.25 17.9766C10.8828 17.9531 10.5195 17.8945 10.1602 17.8008C9.80078 17.707 9.45703 17.5742 9.12891 17.4023C8.80078 17.2305 8.50781 17.0195 8.25 16.7695C7.99219 16.5195 7.77344 16.2148 7.59375 15.8555C7.57031 15.8008 7.55078 15.7461 7.53516 15.6914C7.51953 15.6367 7.50781 15.5742 7.5 15.5039C7.5 15.3008 7.57422 15.125 7.72266 14.9766C7.87109 14.8281 8.04688 14.75 8.25 14.7422C8.39844 14.7422 8.52344 14.7773 8.625 14.8477C8.72656 14.918 8.82031 15.0156 8.90625 15.1406C9.19531 15.6016 9.52344 15.9297 9.89062 16.125C10.2578 16.3203 10.7109 16.4375 11.25 16.4766V12.5859C10.7812 12.4766 10.3203 12.332 9.86719 12.1523C9.41406 11.9727 8.98828 11.7461 8.58984 11.4727C8.21484 11.2227 7.94141 10.9219 7.76953 10.5703C7.59766 10.2188 7.50781 9.82031 7.5 9.375C7.5 8.85156 7.60938 8.39453 7.82812 8.00391C8.04688 7.61328 8.33203 7.28125 8.68359 7.00781C9.03516 6.73438 9.43359 6.51953 9.87891 6.36328C10.3242 6.20703 10.7812 6.10156 11.25 6.04688V5.84766C11.25 5.77734 11.2461 5.69531 11.2383 5.60156C11.2383 5.46875 11.2461 5.33984 11.2617 5.21484C11.2773 5.08984 11.3086 4.97266 11.3555 4.86328C11.4023 4.75391 11.4805 4.66797 11.5898 4.60547C11.6992 4.54297 11.8359 4.50781 12 4.5C12.1719 4.5 12.3047 4.53125 12.3984 4.59375C12.4922 4.65625 12.5664 4.74219 12.6211 4.85156C12.6758 4.96094 12.7109 5.08203 12.7266 5.21484C12.7422 5.34766 12.75 5.48047 12.75 5.61328V6.02344C13.5 6.07812 14.1875 6.26953 14.8125 6.59766C15.4375 6.92578 15.957 7.41797 16.3711 8.07422C16.457 8.20703 16.5 8.34766 16.5 8.49609C16.5 8.69922 16.4258 8.875 16.2773 9.02344C16.1289 9.17188 15.9531 9.24609 15.75 9.24609C15.6016 9.24609 15.4844 9.21875 15.3984 9.16406C15.3125 9.10938 15.2227 9.02734 15.1289 8.91797C14.957 8.68359 14.793 8.48438 14.6367 8.32031C14.4805 8.15625 14.3086 8.01953 14.1211 7.91016C13.9336 7.80078 13.7344 7.71484 13.5234 7.65234C13.3125 7.58984 13.0547 7.54688 12.75 7.52344ZM11.25 11.0391V7.55859C11.0078 7.59766 10.7539 7.65625 10.4883 7.73438C10.2227 7.8125 9.98047 7.92578 9.76172 8.07422C9.54297 8.22266 9.36328 8.40234 9.22266 8.61328C9.08203 8.82422 9.00781 9.07812 9 9.375C9 9.61719 9.08203 9.82812 9.24609 10.0078C9.41016 10.1875 9.60938 10.3477 9.84375 10.4883C10.0781 10.6289 10.3242 10.7422 10.582 10.8281C10.8398 10.9141 11.0625 10.9844 11.25 11.0391ZM12.75 12.9492V16.4648C13.0312 16.4414 13.3047 16.3945 13.5703 16.3242C13.8359 16.2539 14.0781 16.1484 14.2969 16.0078C14.5156 15.8672 14.6836 15.6836 14.8008 15.457C14.918 15.2305 14.9844 14.9531 15 14.625C15 14.3594 14.9219 14.1328 14.7656 13.9453C14.6094 13.7578 14.4141 13.6016 14.1797 13.4766C13.9453 13.3516 13.6992 13.2461 13.4414 13.1602C13.1836 13.0742 12.9531 13.0039 12.75 12.9492Z" fill="white"/>
</svg>
