<svg width="24" height="24" viewBox="0 0 24 24" fill="none" xmlns="http://www.w3.org/2000/svg">
<path d="M22.2304 18.4219C22.2304 18.625 22.1562 18.8008 22.0078 18.9492C21.8593 19.0977 21.6835 19.1719 21.4804 19.1719C21.3632 19.1719 21.2421 19.1328 21.1171 19.0547C20.9921 18.9766 20.871 18.8867 20.7539 18.7852C20.6367 18.6836 20.5273 18.5703 20.4257 18.4453C20.3242 18.3203 20.2343 18.2227 20.1562 18.1523C19.3281 18.8867 18.4218 19.4766 17.4375 19.9219C16.4531 20.3672 15.4101 20.668 14.3085 20.8242V22.5H16.5V24H10.5V22.5H12.8085V20.9297C11.7617 20.9297 10.7578 20.7969 9.79683 20.5312C8.83589 20.2656 7.93745 19.8906 7.10151 19.4062C6.26558 18.9219 5.49995 18.3398 4.80464 17.6602C4.10933 16.9805 3.52339 16.2227 3.04683 15.3867C2.57026 14.5508 2.19136 13.6523 1.91011 12.6914C1.62886 11.7305 1.49214 10.7266 1.49995 9.67969C1.49995 8.29688 1.73823 6.98047 2.21479 5.73047C2.69136 4.48047 3.37886 3.32812 4.27729 2.27344C4.20698 2.21094 4.13667 2.14453 4.06636 2.07422C3.99604 2.00391 3.92573 1.92969 3.85542 1.85156C3.78511 1.77344 3.73042 1.69141 3.69136 1.60547C3.65229 1.51953 3.62886 1.42188 3.62104 1.3125C3.62104 1.10938 3.69526 0.933594 3.8437 0.785156C3.99214 0.636719 4.16792 0.5625 4.37104 0.5625C4.58198 0.5625 4.76167 0.636719 4.91011 0.785156L7.51167 3.375C8.25386 2.76562 9.07026 2.30078 9.96089 1.98047C10.8515 1.66016 11.7812 1.5 12.75 1.5C13.5078 1.5 14.2382 1.59766 14.9414 1.79297C15.6445 1.98828 16.3007 2.26562 16.9101 2.625C17.5195 2.98438 18.0781 3.41406 18.5859 3.91406C19.0937 4.41406 19.5234 4.96875 19.875 5.57812C20.2265 6.1875 20.5039 6.84766 20.707 7.55859C20.9101 8.26953 21.0078 9 21 9.75C21 10.7109 20.8398 11.6367 20.5195 12.5273C20.1992 13.418 19.7343 14.2383 19.125 14.9883L22.0078 17.8828C22.1562 18.0312 22.2304 18.2109 22.2304 18.4219ZM5.99995 9.75C5.99995 10.3828 6.08979 11.0117 6.26948 11.6367L7.7812 10.1133C7.49214 9.68359 7.23433 9.24219 7.00776 8.78906C6.7812 8.33594 6.58979 7.85938 6.43354 7.35938C6.14448 8.14062 5.99995 8.9375 5.99995 9.75ZM8.85933 4.69922C8.46089 4.69922 8.16792 4.79297 7.98042 4.98047C7.79292 5.16797 7.69917 5.46484 7.69917 5.87109C7.69917 6.12891 7.73433 6.39844 7.80464 6.67969C7.87495 6.96094 7.96479 7.23828 8.07417 7.51172C8.18354 7.78516 8.30854 8.05469 8.44917 8.32031C8.58979 8.58594 8.73042 8.82422 8.87104 9.03516L12.0351 5.87109C11.8164 5.73047 11.5781 5.58984 11.3203 5.44922C11.0625 5.30859 10.7929 5.18359 10.5117 5.07422C10.2304 4.96484 9.95308 4.875 9.67964 4.80469C9.4062 4.73438 9.13276 4.69922 8.85933 4.69922ZM16.6289 10.4648L13.4648 13.6289C13.6835 13.7695 13.9218 13.9062 14.1796 14.0391C14.4375 14.1719 14.7031 14.2969 14.9765 14.4141C15.25 14.5312 15.5312 14.625 15.8203 14.6953C16.1093 14.7656 16.3789 14.8008 16.6289 14.8008C17.0351 14.8008 17.332 14.707 17.5195 14.5195C17.707 14.332 17.8007 14.0352 17.8007 13.6289C17.8007 13.3711 17.7656 13.1016 17.6953 12.8203C17.625 12.5391 17.5351 12.2617 17.4257 11.9883C17.3164 11.7148 17.1914 11.4453 17.0507 11.1797C16.9101 10.9141 16.7695 10.6758 16.6289 10.4648ZM12.2226 12.75L15.75 9.22266C15.0078 8.31641 14.1835 7.49219 13.2773 6.75L9.74995 10.2773C10.4921 11.1836 11.3164 12.0078 12.2226 12.75ZM8.68354 11.332L6.90229 13.125C7.19917 13.6406 7.55464 14.1055 7.9687 14.5195C8.38276 14.9336 8.85151 15.293 9.37495 15.5977L11.1679 13.8164C10.2539 13.0742 9.42573 12.2461 8.68354 11.332ZM12.3867 14.7188L10.8632 16.2305C11.4882 16.4102 12.1171 16.5 12.75 16.5C13.5625 16.5 14.3593 16.3555 15.1406 16.0664C14.6484 15.9102 14.1757 15.7188 13.7226 15.4922C13.2695 15.2656 12.8242 15.0078 12.3867 14.7188ZM19.0664 12.1406C19.3554 11.3594 19.5 10.5625 19.5 9.75C19.5 9.11719 19.4101 8.48828 19.2304 7.86328L17.7187 9.38672C18.0078 9.81641 18.2656 10.2578 18.4921 10.7109C18.7187 11.1641 18.9101 11.6406 19.0664 12.1406ZM18.5976 6.375C18.3007 5.85938 17.9453 5.39453 17.5312 4.98047C17.1171 4.56641 16.6484 4.20703 16.125 3.90234L14.332 5.68359C15.246 6.42578 16.0742 7.25391 16.8164 8.16797L18.5976 6.375ZM14.6367 3.26953C14.0117 3.08984 13.3828 3 12.75 3C11.9375 3 11.1406 3.14453 10.3593 3.43359C10.8515 3.58984 11.3242 3.78125 11.7773 4.00781C12.2304 4.23438 12.6757 4.49219 13.1132 4.78125L14.6367 3.26953ZM12.75 19.4297C13.914 19.4297 15.039 19.2305 16.125 18.832C17.2109 18.4336 18.1992 17.8516 19.0898 17.0859L18.0703 16.0664C17.3125 16.6914 16.4843 17.168 15.5859 17.4961C14.6875 17.8242 13.7421 17.9922 12.75 18C11.9921 18 11.2617 17.9023 10.5585 17.707C9.85542 17.5117 9.19917 17.2344 8.58979 16.875C7.98042 16.5156 7.42183 16.0859 6.91401 15.5859C6.4062 15.0859 5.97651 14.5312 5.62495 13.9219C5.27339 13.3125 4.99604 12.6523 4.79292 11.9414C4.58979 11.2305 4.49214 10.5 4.49995 9.75C4.49995 8.75781 4.66401 7.8125 4.99214 6.91406C5.32026 6.01562 5.80073 5.1875 6.43354 4.42969L5.3437 3.33984C4.58589 4.23047 4.00776 5.21875 3.60933 6.30469C3.21089 7.39062 3.00776 8.51953 2.99995 9.69141C2.99995 10.5898 3.11323 11.4531 3.33979 12.2812C3.56636 13.1094 3.89448 13.8828 4.32417 14.6016C4.75386 15.3203 5.26167 15.9766 5.84761 16.5703C6.43354 17.1641 7.08979 17.6719 7.81636 18.0938C8.54292 18.5156 9.32026 18.8438 10.1484 19.0781C10.9765 19.3125 11.8437 19.4297 12.75 19.4297Z" fill="white"/>
</svg>
