<svg width="41" height="31" viewBox="0 0 41 31" fill="none" xmlns="http://www.w3.org/2000/svg">
<path d="M10.7 25.5011H5.69995V23.0011H10.7V25.5011ZM25.7 20.5011H20.7V18.0011H25.7V20.5011ZM38.2 0.501139C38.5515 0.501139 38.877 0.566243 39.1765 0.696452C39.476 0.82666 39.7364 1.00244 39.9578 1.2238C40.1791 1.44515 40.3614 1.71208 40.5046 2.02458C40.6479 2.33708 40.713 2.6626 40.7 3.00114V23.0011C40.7 23.3527 40.6348 23.6782 40.5046 23.9777C40.3744 24.2772 40.1987 24.5376 39.9773 24.759C39.7559 24.9803 39.489 25.1626 39.1765 25.3058C38.864 25.4491 38.5385 25.5142 38.2 25.5011H15.7V30.5011H0.699951V8.00114H5.69995V3.00114C5.69995 2.64958 5.76506 2.32406 5.89526 2.02458C6.02547 1.7251 6.20125 1.46468 6.42261 1.24333C6.64396 1.02197 6.91089 0.839681 7.22339 0.696452C7.53589 0.553223 7.86141 0.488118 8.19995 0.501139H38.2ZM13.2 10.5011H3.19995V28.0011H13.2V10.5011ZM38.2 3.00114H8.19995V8.00114H15.7V23.0011H38.2V3.00114Z" fill="white"/>
</svg>
