<svg width="38" height="36" viewBox="0 0 38 36" fill="none" xmlns="http://www.w3.org/2000/svg">
<path d="M33 0.499512C33.6901 0.499512 34.3346 0.62972 34.9336 0.890137C35.5326 1.15055 36.0664 1.50863 36.5352 1.96436C37.0039 2.42008 37.362 2.94743 37.6094 3.54639C37.8568 4.14534 37.987 4.79639 38 5.49951V30.4995C38 31.1896 37.8698 31.8341 37.6094 32.4331C37.349 33.0321 36.9909 33.5659 36.5352 34.0347C36.0794 34.5034 35.5521 34.8615 34.9531 35.1089C34.3542 35.3563 33.7031 35.4865 33 35.4995H5.5C4.8099 35.4995 4.16536 35.3693 3.56641 35.1089C2.96745 34.8485 2.43359 34.4904 1.96484 34.0347C1.49609 33.5789 1.13802 33.0516 0.890625 32.4526C0.643229 31.8537 0.513021 31.2026 0.5 30.4995V5.49951C0.5 4.80941 0.630208 4.16488 0.890625 3.56592C1.15104 2.96696 1.50911 2.43311 1.96484 1.96436C2.42057 1.49561 2.94792 1.13753 3.54688 0.890137C4.14583 0.642741 4.79688 0.512533 5.5 0.499512H33ZM35.5 30.4995V5.49951C35.5 5.14795 35.4349 4.82243 35.3047 4.52295C35.1745 4.22347 34.9987 3.96305 34.7773 3.7417C34.556 3.52034 34.2891 3.33805 33.9766 3.19482C33.6641 3.05159 33.3385 2.98649 33 2.99951H5.5C5.14844 2.99951 4.82292 3.06462 4.52344 3.19482C4.22396 3.32503 3.96354 3.50081 3.74219 3.72217C3.52083 3.94352 3.33854 4.21045 3.19531 4.52295C3.05208 4.83545 2.98698 5.16097 3 5.49951V30.4995C3 30.8511 3.0651 31.1766 3.19531 31.4761C3.32552 31.7756 3.5013 32.036 3.72266 32.2573C3.94401 32.4787 4.21094 32.661 4.52344 32.8042C4.83594 32.9474 5.16146 33.0125 5.5 32.9995H33C33.3516 32.9995 33.6771 32.9344 33.9766 32.8042C34.276 32.674 34.5365 32.4982 34.7578 32.2769C34.9792 32.0555 35.1615 31.7886 35.3047 31.4761C35.4479 31.1636 35.513 30.8381 35.5 30.4995ZM15.5 5.49951C15.8516 5.49951 16.1771 5.56462 16.4766 5.69482C16.776 5.82503 17.0365 6.00081 17.2578 6.22217C17.4792 6.44352 17.6615 6.71045 17.8047 7.02295C17.9479 7.33545 18.013 7.66097 18 7.99951V27.9995C18 28.3511 17.9349 28.6766 17.8047 28.9761C17.6745 29.2756 17.4987 29.536 17.2773 29.7573C17.056 29.9787 16.7891 30.161 16.4766 30.3042C16.1641 30.4474 15.8385 30.5125 15.5 30.4995H8C7.64844 30.4995 7.32292 30.4344 7.02344 30.3042C6.72396 30.174 6.46354 29.9982 6.24219 29.7769C6.02083 29.5555 5.83854 29.2886 5.69531 28.9761C5.55208 28.6636 5.48698 28.3381 5.5 27.9995V7.99951C5.5 7.64795 5.5651 7.32243 5.69531 7.02295C5.82552 6.72347 6.0013 6.46305 6.22266 6.2417C6.44401 6.02035 6.71094 5.83805 7.02344 5.69482C7.33594 5.5516 7.66146 5.48649 8 5.49951H15.5ZM15.5 27.9995V7.99951H8V27.9995H15.5ZM30.5 5.49951C30.8516 5.49951 31.1771 5.56462 31.4766 5.69482C31.776 5.82503 32.0365 6.00081 32.2578 6.22217C32.4792 6.44352 32.6615 6.71045 32.8047 7.02295C32.9479 7.33545 33.013 7.66097 33 7.99951V27.9995C33 28.3511 32.9349 28.6766 32.8047 28.9761C32.6745 29.2756 32.4987 29.536 32.2773 29.7573C32.056 29.9787 31.7891 30.161 31.4766 30.3042C31.1641 30.4474 30.8385 30.5125 30.5 30.4995H23C22.6484 30.4995 22.3229 30.4344 22.0234 30.3042C21.724 30.174 21.4635 29.9982 21.2422 29.7769C21.0208 29.5555 20.8385 29.2886 20.6953 28.9761C20.5521 28.6636 20.487 28.3381 20.5 27.9995V7.99951C20.5 7.64795 20.5651 7.32243 20.6953 7.02295C20.8255 6.72347 21.0013 6.46305 21.2227 6.2417C21.444 6.02035 21.7109 5.83805 22.0234 5.69482C22.3359 5.5516 22.6615 5.48649 23 5.49951H30.5ZM30.5 27.9995V25.4995H23V27.9995H30.5ZM30.5 22.9995V20.4995H23V22.9995H30.5ZM30.5 17.9995V7.99951H23V17.9995H30.5Z" fill="white"/>
</svg>
